PathFileType	4	(X/Y/Z)	/Users/itak/Documents/Research/Walk-IL/dataset/trc/00123_00007.trc
DataRate	CameraRate	NumFrames	NumMarkers	Units	OrigDataRate	OrigDataStartFrame	OrigNumFrames
100.000000	100.000000	4	53	mm	100.000000	0	727
Frame#	Time	RPSI			LPSI			L3			STRN			T10			C7			CLAV			RBAK			LBAK			LSHO			LUPA			LAEL			LAOL			LWTS			LWPS			LFRA			LIFD			LHPS			LHTS			RSHO			RUPA			RAEL			RAOL			RWTS			RWPS			RFRA			RIFD			RHTS			RHPS			RBHD			LFHD			RFHD			LBHD			LHIP			RHIP			RASI			LASI			LKNE			LTHI			LANK			LTIP			LTOE			LMT1			LMT5			LHEE			RKNE			RTHI			RANK			RTIP			RTOE			RMT1			RMT5			RHEE			
		X1	Y1	Z1	X2	Y2	Z2	X3	Y3	Z3	X4	Y4	Z4	X5	Y5	Z5	X6	Y6	Z6	X7	Y7	Z7	X8	Y8	Z8	X9	Y9	Z9	X10	Y10	Z10	X11	Y11	Z11	X12	Y12	Z12	X13	Y13	Z13	X14	Y14	Z14	X15	Y15	Z15	X16	Y16	Z16	X17	Y17	Z17	X18	Y18	Z18	X19	Y19	Z19	X20	Y20	Z20	X21	Y21	Z21	X22	Y22	Z22	X23	Y23	Z23	X24	Y24	Z24	X25	Y25	Z25	X26	Y26	Z26	X27	Y27	Z27	X28	Y28	Z28	X29	Y29	Z29	X30	Y30	Z30	X31	Y31	Z31	X32	Y32	Z32	X33	Y33	Z33	X34	Y34	Z34	X35	Y35	Z35	X36	Y36	Z36	X37	Y37	Z37	X38	Y38	Z38	X39	Y39	Z39	X40	Y40	Z40	X41	Y41	Z41	X42	Y42	Z42	X43	Y43	Z43	X44	Y44	Z44	X45	Y45	Z45	X46	Y46	Z46	X47	Y47	Z47	X48	Y48	Z48	X49	Y49	Z49	X50	Y50	Z50	X51	Y51	Z51	X52	Y52	Z52	X53	Y53	Z53	

1	0	-34.37190246582031	1130.238891601562	1225.457641601562	-29.65072631835938	1131.641235351562	1090.760009765625	-39.01009750366211	1162.369140625	1155.758056640625	164.5796966552734	1368.544189453125	1164.425537109375	-85.85573577880859	1309.772216796875	1151.286376953125	-64.04115295410156	1603.112182617188	1135.679809570312	122.3372192382812	1501.635620117188	1157.2373046875	-114.037727355957	1417.310302734375	1221.264038085938	-62.88432693481445	1581.223510742188	1034.001953125	28.30429840087891	1569.52783203125	970.9143676757812	17.55809020996094	1435.95166015625	901.3861694335938	44.8421516418457	1216.47021484375	888.228271484375	-28.92843437194824	1203.198974609375	934.8909301757812	149.2111968994141	966.5032348632812	957.9874267578125	74.70139312744141	935.1710815429688	918.8674926757812	68.23720550537109	1101.358642578125	891.5330200195312	166.3717498779297	775.731201171875	990.162841796875	106.9850158691406	861.8934936523438	926.3956298828125	170.5168914794922	877.5145874023438	953.0554809570312	-19.15880012512207	1587.366577148438	1320.694702148438	-38.56536102294922	1514.312622070312	1383.938232421875	-42.63423156738281	1219.096557617188	1404.662353515625	-42.67220687866211	1217.366333007812	1308.977783203125	109.2844009399414	980.8426513671875	1398.56640625	33.49183654785156	961.3642578125	1425.5185546875	-17.40073013305664	1146.759887695312	1421.791259765625	140.5274505615234	788.2153930664062	1379.63623046875	142.6674346923828	873.4970703125	1405.0341796875	72.98933410644531	865.7115478515625	1430.855590820312	-28.10266304016113	1779.15576171875	1213.299194335938	137.3249969482422	1849.313354492188	1084.537963867188	131.4709625244141	1857.626220703125	1214.638061523438	-30.49666023254395	1773.8974609375	1078.328002929688	67.17754364013672	1043.607055664062	987.18505859375	88.26225280761719	1037.055053710938	1348.013916015625	169.2235260009766	1111.943725585938	1299.080688476562	172.8750152587891	1110.820434570312	1032.78662109375	92.48558044433594	541.9725341796875	1026.979736328125	71.91065979003906	687.9098510742188	996.037109375	-37.36130905151367	44.81897735595703	1037.379028320312	-15.38670253753662	296.8485717773438	1000.634765625	189.4813537597656	38.96823501586914	1107.79052734375	107.0363693237305	44.01220321655273	1137.095092773438	88.69631195068359	40.65812301635742	1021.557739257812	-111.0472564697266	47.06350708007812	1094.052978515625	76.74972534179688	544.6237182617188	1310.793579101562	98.15590667724609	827.733642578125	1349.68017578125	-42.49137115478516	32.73255920410156	1290.667846679688	47.29928588867188	411.0248413085938	1321.6396484375	193.1703338623047	49.19452285766602	1242.989990234375	133.9999084472656	41.88130187988281	1198.704956054688	92.30989074707031	42.48571395874023	1316.028930664062	-97.87966918945312	36.40597915649414	1239.259033203125	
2	0.01	-34.40050888061523	1130.222412109375	1225.48193359375	-29.70389747619629	1131.666137695312	1090.744873046875	-39.07561874389648	1162.377563476562	1155.787475585938	164.4831237792969	1368.63671875	1164.388305664062	-85.92668914794922	1309.8125	1151.31787109375	-64.22034454345703	1603.130615234375	1135.648193359375	122.2260971069336	1501.69921875	1157.158081054688	-114.081184387207	1417.34130859375	1221.330200195312	-63.11844635009766	1581.251708984375	1033.991455078125	28.06660842895508	1569.535766601562	970.8671264648438	17.36238479614258	1435.949462890625	901.361083984375	44.68376922607422	1216.480834960938	888.2547607421875	-29.01541328430176	1203.184936523438	934.9290161132812	149.2432098388672	966.5968627929688	958.0140991210938	74.73995208740234	935.2091674804688	918.94140625	68.17346954345703	1101.387573242188	891.5782470703125	166.6448211669922	775.8504638671875	990.176025390625	107.0363616943359	861.9375610351562	926.436767578125	170.6215972900391	877.6246948242188	953.0899658203125	-19.1923999786377	1587.505615234375	1320.659057617188	-38.55354309082031	1514.46240234375	1383.970825195312	-42.61845779418945	1219.253051757812	1404.717529296875	-42.70257949829102	1217.484130859375	1309.005859375	109.2461090087891	980.9448852539062	1398.371215820312	33.49215698242188	961.4716186523438	1425.465576171875	-17.38708114624023	1146.906616210938	1421.801025390625	140.4055633544922	788.310302734375	1379.384765625	142.6938629150391	873.5968627929688	1404.782470703125	72.78610229492188	865.7589721679688	1430.704223632812	-28.60675621032715	1779.32373046875	1212.739013671875	137.4705963134766	1849.245849609375	1084.66650390625	131.0415954589844	1857.723999023438	1214.735473632812	-30.31031227111816	1773.837646484375	1077.84814453125	67.09648895263672	1043.710693359375	987.1466064453125	88.30467987060547	1037.029296875	1347.969116210938	169.2209167480469	1111.994506835938	1299.028564453125	172.7906646728516	1110.971801757812	1032.72607421875	92.75885772705078	542.0400390625	1026.962646484375	72.05455017089844	687.9888916015625	996.0340576171875	-37.35605621337891	44.90030288696289	1037.468505859375	-15.23584938049316	296.9378356933594	1000.702697753906	189.5358734130859	38.9090690612793	1107.766357421875	107.0891342163086	44.03128051757812	1137.100463867188	88.70155334472656	40.66740798950195	1021.579162597656	-111.0435256958008	47.25029754638672	1094.2412109375	77.13955688476562	544.5697631835938	1310.585815429688	98.26771545410156	827.7804565429688	1349.585205078125	-42.47244262695312	32.76021194458008	1290.66357421875	47.67384338378906	410.96142578125	1321.521728515625	193.1817016601562	49.18640518188477	1242.96875	134.0101165771484	41.84717559814453	1198.677001953125	92.33292388916016	42.5131950378418	1316.007080078125	-97.87024688720703	36.40845489501953	1239.245361328125	
3	0.02	-34.43637084960938	1130.202270507812	1225.504516601562	-29.77330780029297	1131.69091796875	1090.720825195312	-39.15527725219727	1162.3828125	1155.818725585938	164.3616790771484	1368.740966796875	1164.343994140625	-86.00467681884766	1309.842407226562	1151.34912109375	-64.43618774414062	1603.143310546875	1135.607177734375	122.0849914550781	1501.769409179688	1157.058837890625	-114.1487350463867	1417.375732421875	1221.418212890625	-63.40676116943359	1581.269409179688	1033.974365234375	27.76094436645508	1569.53271484375	970.809814453125	17.10179328918457	1435.937622070312	901.330322265625	44.48150253295898	1216.477661132812	888.277587890625	-29.13962745666504	1203.15283203125	934.9727783203125	149.2651214599609	966.6914672851562	958.02587890625	74.76432800292969	935.2384033203125	919.0128784179688	68.07488250732422	1101.406127929688	891.6182250976562	166.9301147460938	775.9747314453125	990.1820068359375	107.0896682739258	861.979248046875	926.4737548828125	170.7237243652344	877.7401733398438	953.1126708984375	-19.24155235290527	1587.663818359375	1320.613891601562	-38.54507827758789	1514.635009765625	1384.007568359375	-42.59499359130859	1219.437255859375	1404.794067382812	-42.75861358642578	1217.62255859375	1309.055786132812	109.2150344848633	981.0629272460938	1398.1279296875	33.50001525878906	961.6004028320312	1425.400024414062	-17.36751556396484	1147.074340820312	1421.820068359375	140.2480163574219	788.41357421875	1379.073486328125	142.696533203125	873.707763671875	1404.470458984375	72.58474731445312	865.8240966796875	1430.493286132812	-29.21313285827637	1779.513916015625	1212.051147460938	137.6413421630859	1849.157104492188	1084.8232421875	130.5140686035156	1857.836181640625	1214.8505859375	-30.07694244384766	1773.759521484375	1077.231079101562	66.99219512939453	1043.826049804688	987.0988159179688	88.35115814208984	1036.9931640625	1347.906616210938	169.2185211181641	1112.049682617188	1298.96142578125	172.6809539794922	1111.143798828125	1032.645874023438	93.07475280761719	542.1131591796875	1026.943603515625	72.21463012695312	688.0746459960938	996.0264282226562	-37.35160446166992	44.99742889404297	1037.575561523438	-15.06359577178955	297.0375671386719	1000.7978515625	189.6034393310547	38.82982635498047	1107.725952148438	107.1520919799805	44.05124664306641	1137.109008789062	88.70757293701172	40.68239593505859	1021.60888671875	-111.0395278930664	47.45112991333008	1094.467041015625	77.60866546630859	544.5108642578125	1310.33154296875	98.37069702148438	827.8646240234375	1349.477416992188	-42.45027542114258	32.79700088500977	1290.652587890625	48.11853408813477	410.8827209472656	1321.375854492188	193.1950225830078	49.17705154418945	1242.94140625	134.0229187011719	41.80339431762695	1198.641845703125	92.35879516601562	42.54774475097656	1315.978515625	-97.86106872558594	36.41262817382812	1239.227905273438	
4	0.03	-34.4776725769043	1130.178955078125	1225.519897460938	-29.85724258422852	1131.711181640625	1090.68701171875	-39.24435043334961	1162.381103515625	1155.847412109375	164.2187042236328	1368.845947265625	1164.293334960938	-86.08149719238281	1309.850708007812	1151.375122070312	-64.67611694335938	1603.144409179688	1135.557495117188	121.9194717407227	1501.838500976562	1156.944458007812	-114.2438735961914	1417.408935546875	1221.526123046875	-63.73412322998047	1581.265747070312	1033.950439453125	27.39752197265625	1569.512084960938	970.7453002929688	16.78019714355469	1435.9111328125	901.2960815429688	44.24122619628906	1216.451904296875	888.2904663085938	-29.30263137817383	1203.096313476562	935.0175170898438	149.2643432617188	966.7709350585938	958.0113525390625	74.76155853271484	935.2484130859375	919.0679321289062	67.93457794189453	1101.404907226562	891.6425170898438	167.1930389404297	776.086669921875	990.1724243164062	107.1365203857422	862.0100708007812	926.4967041015625	170.8046417236328	877.8436889648438	953.1114501953125	-19.30763816833496	1587.825439453125	1320.561401367188	-38.54284286499023	1514.814086914062	1384.044799804688	-42.56423187255859	1219.634033203125	1404.890991210938	-42.84934234619141	1217.771484375	1309.132934570312	109.1978530883789	981.1862182617188	1397.846435546875	33.51879119873047	961.7398071289062	1425.32568359375	-17.34027099609375	1147.24658203125	1421.850830078125	140.0624389648438	788.5133056640625	1378.716918945312	142.6614227294922	873.8169555664062	1404.113647460938	72.4066162109375	865.9012451171875	1430.223510742188	-29.8861026763916	1779.707275390625	1211.270629882812	137.8243713378906	1849.048950195312	1084.99951171875	129.9119720458984	1857.953491210938	1214.975952148438	-29.80846786499023	1773.664306640625	1076.498657226562	66.87001037597656	1043.938842773438	987.0442504882812	88.3974609375	1036.947875976562	1347.82666015625	169.2164001464844	1112.103149414062	1298.880004882812	172.5486755371094	1111.318725585938	1032.546508789062	93.40612030029297	542.1821899414062	1026.9267578125	72.3746337890625	688.1556396484375	996.0147705078125	-37.34957504272461	45.10173416137695	1037.693969726562	-14.88394641876221	297.1351623535156	1000.919006347656	189.6803741455078	38.73271560668945	1107.666748046875	107.2206115722656	44.06896209716797	1137.121459960938	88.71360778808594	40.7037467956543	1021.646301269531	-111.0343704223633	47.64092636108398	1094.717041015625	78.12296295166016	544.453857421875	1310.047729492188	98.4482421875	827.985107421875	1349.3681640625	-42.42659378051758	32.84135818481445	1290.634521484375	48.60170364379883	410.7939758300781	1321.210327148438	193.2089996337891	49.16749954223633	1242.909301757812	134.0372009277344	41.75326919555664	1198.601318359375	92.38384246826172	42.58565139770508	1315.941772460938	-97.85342407226562	36.41831588745117	1239.20751953125	
